<svg xmlns="http://www.w3.org/2000/svg" viewBox="0 0 64 64"><g id="Layer_28" data-name="Layer 28"><path d="M31.5,42.26a.61.61,0,0,1,1,0l.29.44A4.14,4.14,0,0,0,32,37.14a4.12,4.12,0,0,0-.79,5.56Z"/><path d="M42.56,44.44c-.56-.54.31-1.4.85-.85l.24.25a9.63,9.63,0,0,0-1-2.37,10.8,10.8,0,0,1-6.4-1,10.86,10.86,0,0,1,1,6.39A9.19,9.19,0,0,0,41,48.25c.28.06.46,0,.57-.22l-.37-1.81a.6.6,0,0,1,.17-.54.57.57,0,0,1,.54-.17l1.81.37a.41.41,0,0,0,.2-.23C43.64,45.67,42.77,44.61,42.56,44.44Z"/><path d="M27.8,32.09a10.86,10.86,0,0,1-1-6.39A9.19,9.19,0,0,0,23,24.33c-.29-.07-.46,0-.57.22l.37,1.81a.63.63,0,0,1-.17.54.6.6,0,0,1-.54.16l-1.81-.36a.42.42,0,0,0-.25.39,9.47,9.47,0,0,0,1.39,4A11,11,0,0,1,27.8,32.09Z"/><path d="M38.41,37.08,38,36.79a.61.61,0,0,1,0-1l.44-.29a4.14,4.14,0,0,0-5.56.79A4.13,4.13,0,0,0,38.41,37.08Z"/><path d="M30.36,29A1.05,1.05,0,0,1,32,28.9a1.05,1.05,0,0,1,1.68.17,5.07,5.07,0,0,1,1,3.22,9.61,9.61,0,0,0-.64-10.84.43.43,0,0,0-.56-.24l-1,1.54a.61.61,0,0,1-1,0l-1-1.54a.42.42,0,0,0-.52.18,9.66,9.66,0,0,0-.68,10.91A5.22,5.22,0,0,1,30.36,29Z"/><path d="M33.63,43.57a1,1,0,0,1-1.63.11,1.05,1.05,0,0,1-1.68-.17,5.15,5.15,0,0,1-1.05-3.23,9.63,9.63,0,0,0,.65,10.85.43.43,0,0,0,.56.24l1-1.54a.63.63,0,0,1,1,0l1,1.54a.42.42,0,0,0,.52-.18,9.66,9.66,0,0,0,.68-10.91A5.17,5.17,0,0,1,33.63,43.57Z"/><path d="M21.41,41.46A9.19,9.19,0,0,0,20,45.31a.44.44,0,0,0,.22.57l1.81-.37a.57.57,0,0,1,.54.17.63.63,0,0,1,.17.54L22.41,48a.41.41,0,0,0,.39.24,9.34,9.34,0,0,0,4-1.39,11,11,0,0,1,1-6.39A10.78,10.78,0,0,1,21.41,41.46Z"/><path d="M28,39a5.14,5.14,0,0,1-3.28-1.1,1,1,0,0,1-.11-1.63,1.05,1.05,0,0,1,.17-1.68,5.08,5.08,0,0,1,3.22-1,9.61,9.61,0,0,0-10.84.65.43.43,0,0,0-.24.56l1.54,1a.61.61,0,0,1,0,1l-1.54,1a.42.42,0,0,0,.18.52A9.68,9.68,0,0,0,28,39Z"/><path d="M42.59,31.12A9.19,9.19,0,0,0,44,27.27a.44.44,0,0,0-.22-.57l-1.81.36a.6.6,0,0,1-.71-.7l.37-1.81a.43.43,0,0,0-.39-.25,9.51,9.51,0,0,0-4,1.39,10.89,10.89,0,0,1-1,6.4A10.86,10.86,0,0,1,42.59,31.12Z"/><path d="M25.59,37.08a4.14,4.14,0,0,0,5.56-.79,4.12,4.12,0,0,0-5.56-.79l.44.29a.61.61,0,0,1,0,1Z"/><path d="M32.79,29.88l-.29.44a.61.61,0,0,1-1,0l-.29-.44A4.14,4.14,0,0,0,32,35.44,4.13,4.13,0,0,0,32.79,29.88Z"/><path d="M52.54,4.39h-3A2.4,2.4,0,0,0,47.1,3.32,2.19,2.19,0,0,0,44.91,5.5V8.39H34.47V5.5a2.3,2.3,0,0,0-2.75-2.18A2.19,2.19,0,0,0,29.54,5.5V8.39H19.09V5.5A2.19,2.19,0,0,0,16.9,3.32a2.44,2.44,0,0,0-2.43,1.07h-3A7.61,7.61,0,0,0,3.85,12V53.08a7.61,7.61,0,0,0,7.61,7.6H52.54a7.61,7.61,0,0,0,7.61-7.6V12A7.61,7.61,0,0,0,52.54,4.39ZM16.34,14.67a2.3,2.3,0,0,0,2.75-2.19V9.59H29.54v2.89a2.3,2.3,0,0,0,2.74,2.19,2.19,2.19,0,0,0,2.19-2.19V9.59H44.91v2.89a2.31,2.31,0,0,0,2.75,2.19,2.19,2.19,0,0,0,2.19-2.19V9.59h2.69a2.4,2.4,0,0,1,2.4,2.4v4.34H9.05V12a2.41,2.41,0,0,1,2.4-2.4h2.71v2.89A2.19,2.19,0,0,0,16.34,14.67Zm35.13,9,1.05,1.06a.6.6,0,0,1-.42,1c-.37.08-1.21-1-1.48-1.23C50.06,23.94,50.93,23.08,51.47,23.63Zm-.85-2.95,1.05-1.05a.6.6,0,0,1,.85.85c-.26.2-1.11,1.3-1.48,1.23A.61.61,0,0,1,50.62,20.68Zm1,2.5a.6.6,0,0,1,0-1.2h1.49a.6.6,0,0,1,0,1.2ZM45.51,42.37a.6.6,0,0,1,.6.6v1.49a.6.6,0,0,1-1,.44c0,.07,0,.14,0,.22a1.59,1.59,0,0,1-1.46,2c-.17.12-.85.05-1.06.07.08.4.29,1,0,1.41l1-1c.55-.56,1.41.31.85.85l-1.05,1a.6.6,0,0,1-1-.57,1.6,1.6,0,0,1-1.61.5,10.36,10.36,0,0,1-3.9-1.31A10.66,10.66,0,0,1,35,51.87a1.59,1.59,0,0,1-2.43.28l-.6-.9-.6.9a1.59,1.59,0,0,1-2.47-.34,10.4,10.4,0,0,1-1.84-3.69,10.53,10.53,0,0,1-3.92,1.32,1.59,1.59,0,0,1-2-1.51l.21-1.06c-.62.11-1.36.42-1.93-.06H18.23a.6.6,0,0,1,0-1.2h.59a1.53,1.53,0,0,1,0-.52c0-.3.1-.6.16-.91l-1,1a.6.6,0,0,1-.85-.85l1.05-1.05a.6.6,0,0,1,1,.17,10.18,10.18,0,0,1,1-2.24,10.66,10.66,0,0,1-3.75-1.87,1.59,1.59,0,0,1-.28-2.43l.9-.6-.9-.6a1.58,1.58,0,0,1,.34-2.47,10.4,10.4,0,0,1,3.69-1.84,10.35,10.35,0,0,1-1.32-3.92,1.59,1.59,0,0,1,1.51-2l1.06.21-.21-1.06a1.58,1.58,0,0,1,2-1.5,10.36,10.36,0,0,1,3.9,1.31A10.66,10.66,0,0,1,29,20.71a1.59,1.59,0,0,1,2.43-.28l.6.9.6-.9a1.59,1.59,0,0,1,2.47.34,10.57,10.57,0,0,1,1.84,3.69,10.35,10.35,0,0,1,3.92-1.32,1.58,1.58,0,0,1,2,1.51l-.21,1.06,1.06-.21a1.58,1.58,0,0,1,1.5,2,10.36,10.36,0,0,1-1.31,3.9,10.66,10.66,0,0,1,3.75,1.87,1.59,1.59,0,0,1,.28,2.43l-.9.6.9.6a1.59,1.59,0,0,1-.34,2.47,10.57,10.57,0,0,1-3.69,1.84,10.4,10.4,0,0,1,1.08,2.66C44.94,43.36,44.73,42.38,45.51,42.37Zm.6,6.31v1.49a.6.6,0,0,1-1.2,0V48.68A.6.6,0,0,1,46.11,48.68Zm-27.43.66c-.37.08-1.21-1-1.48-1.23-.56-.54.3-1.41.85-.85l1.05,1.06A.6.6,0,0,1,18.68,49.34ZM17.61,20.5c-.27.2-1.11,1.3-1.48,1.23a.61.61,0,0,1-.42-1l1.05-1.05C17.3,19.09,18.17,20,17.61,20.5Zm.62,1.5a.6.6,0,0,1,0,1.2H16.74a.6.6,0,0,1,0-1.2Zm-1.68,1.66,1.06,1.05a.6.6,0,0,1-.85.85L15.71,24.5A.59.59,0,0,1,16.55,23.66Zm-1,24.68a.6.6,0,0,1,1.2,0v1.49a.6.6,0,0,1-1.2,0Zm.6-3.62a.59.59,0,0,1-.6-.6V42.63a.6.6,0,0,1,.6-.6.6.6,0,0,1,.6.6v1.49A.6.6,0,0,1,16.15,44.72ZM48.52,24.48l-1.06,1.06c-.54.56-1.41-.31-.85-.85l1.06-1.06C48.21,23.07,49.08,23.94,48.52,24.48Zm-.05,20c-.26.2-1.12,1.31-1.48,1.23a.6.6,0,0,1-.42-1l1-1.06C48.16,43,49,43.9,48.47,44.44Zm-.8-22.91-1.06-1.05c-.56-.55.31-1.41.85-.85l1.06,1.05A.6.6,0,0,1,47.67,21.53Zm-.19.45a.6.6,0,0,1,0,1.2H46A.6.6,0,0,1,46,22ZM47.41,47.6l1.06,1.06a.6.6,0,0,1-.43,1c-.36.08-1.2-1-1.47-1.23C46,47.91,46.87,47,47.41,47.6Zm.19-.45a.6.6,0,0,1,0-1.2h1.49a.6.6,0,0,1,0,1.2Zm2-20.35a.6.6,0,0,1-.6-.6V24.71a.6.6,0,0,1,1.2,0V26.2A.6.6,0,0,1,49.57,26.8Zm0-5.71a.6.6,0,0,1-.6-.6V19a.6.6,0,0,1,1.2,0v1.49A.6.6,0,0,1,49.57,21.09Zm-37,.91a.6.6,0,0,1,0,1.2h-1.5a.6.6,0,0,1,0-1.2Zm0-2.35,1,1.05a.6.6,0,0,1-.85.85L11.7,20.5A.6.6,0,0,1,12.55,19.65Zm-.85,5.06,1.05-1.05c.55-.56,1.41.3.85.84l-1,1.06A.6.6,0,0,1,11.7,24.71Zm3-.58a.6.6,0,0,1,.6.6v1.5a.6.6,0,0,1-.6.6.6.6,0,0,1-.6-.6v-1.5A.6.6,0,0,1,14.65,24.13Zm-.6-3.61V19a.6.6,0,0,1,1.2,0v1.5A.6.6,0,0,1,14.05,20.52Zm1,23.79a.61.61,0,0,1-.42,1c-.37.07-1.21-1-1.48-1.24-.56-.54.31-1.4.85-.84Zm-2.52,1.3h1.49a.6.6,0,0,1,0,1.2H12.57A.6.6,0,0,1,12.57,45.61Zm.62,2.71,1.06-1.06c.54-.56,1.4.31.84.85-.26.2-1.11,1.31-1.48,1.23A.6.6,0,0,1,13.19,48.32Zm45.75,4.76a6.41,6.41,0,0,1-6.4,6.4H11.46a6.41,6.41,0,0,1-6.4-6.4V12a6.41,6.41,0,0,1,6.4-6.4h2.7v2.8H11.45A3.6,3.6,0,0,0,7.85,12V53.08a3.61,3.61,0,0,0,3.6,3.6H52.54a3.6,3.6,0,0,0,3.6-3.6V16.94s0,0,0,0V12a3.6,3.6,0,0,0-3.6-3.6H49.85V5.59h2.69a6.41,6.41,0,0,1,6.4,6.4Z"/><path d="M36,33.57a5.22,5.22,0,0,1,3.29,1.08,1.06,1.06,0,0,1,.11,1.64A1.05,1.05,0,0,1,39.22,38,5,5,0,0,1,36,39a9.63,9.63,0,0,0,10.83-.65.43.43,0,0,0,.24-.56l-1.54-1a.6.6,0,0,1,0-1l1.54-1a.42.42,0,0,0-.18-.52A9.65,9.65,0,0,0,36,33.57Z"/></g></svg>